<?xml version="1.0" encoding="utf-8"?>
<!-- Generator: Adobe Illustrator 22.1.0, SVG Export Plug-In . SVG Version: 6.00 Build 0)  -->
<svg version="1.1" id="Capa_1" xmlns="http://www.w3.org/2000/svg" xmlns:xlink="http://www.w3.org/1999/xlink" x="0px" y="0px"
	 viewBox="0 0 358.1 358.1" style="enable-background:new 0 0 358.1 358.1;" xml:space="preserve">
<style type="text/css">
	.st0{fill:#E74424;}
	.st1{fill:#D43D21;}
	.st2{fill:#F7F1E6;}
</style>
<g id="Guides_For_Artboard_30_">
</g>
<g id="Artwork_29_">
</g>
<g id="Layer_2_29_">
	<g>
		<path class="st0" d="M358.1,45.6v218.5l-46.1,2.3c-24.4,0-44.2,19.8-44.2,44.2v46.1H44.2C19.8,356.7,0,336.9,0,312.5V45.6
			C0,21.2,19.8,1.4,44.2,1.4h269.6C338.3,1.4,358.1,21.2,358.1,45.6z"/>
		<path class="st1" d="M267.7,309.4v47.3l90.4-92.6H313C287.9,264.1,267.7,284.4,267.7,309.4z"/>
	</g>
</g>
<g id="Guides_For_Artboard_20_">
</g>
<g id="Artwork_19_">
</g>
<path class="st2" d="M143.9,122.3c0.7-2,2.7-3.2,4.8-3c2.1,0.3,3.7,2,3.9,4.1l7.2,84.5l13.5-48.8c0.6-2,2.4-3.4,4.5-3.3
	c2.1,0,3.8,1.5,4.3,3.5l7.5,32.7l12.9-54.1c0.5-2.1,2.4-3.6,4.6-3.5c2.2,0.1,4,1.7,4.3,3.9l9.6,68.5l4.3-13.9
	c0.6-1.9,2.3-3.2,4.3-3.2h101.9v-23.3c0-21.5-17.5-39-39-39h-61.9V65.5c0-21.6-17.5-39-39-39h-22.5h-3.6c-21.5,0-39,17.5-39,39v61.9
	H64.7c-21.5,0-39,17.5-39,39v23.8h93.8L143.9,122.3z"/>
<path class="st2" d="M223.8,229c-0.6,2-2.6,3.3-4.7,3.2c-2.1-0.2-3.8-1.8-4.1-3.9l-9.1-64.8L194.1,213c-0.5,2-2.3,3.5-4.4,3.5
	c0,0,0,0,0,0c-2.1,0-3.9-1.5-4.4-3.5l-7.9-34.2l-15.5,55.9c-0.5,2-2.3,3.3-4.4,3.3c-0.1,0-0.3,0-0.4,0c-2.2-0.2-3.9-1.9-4.1-4.1
	l-7.6-88.9l-18.5,51.5c-0.6,1.8-2.3,3-4.3,3H26.3c3.2,18.3,19.2,32.2,38.4,32.2h61.9v61.9c0,21.6,17.5,39,39,39h3.6h22.5
	c21.6,0,39-17.5,39-39v-61.9h61.9c19.4,0,35.5-14.2,38.5-32.7h-98.1L223.8,229z"/>
<path class="st0" d="M347.5,189.8h-15.8H229.7c-2,0-3.7,1.3-4.3,3.2l-4.3,13.9l-9.6-68.5c-0.3-2.2-2.1-3.8-4.3-3.9
	c-2.2-0.1-4.1,1.4-4.6,3.5l-12.9,54.1l-7.5-32.7c-0.5-2-2.2-3.5-4.3-3.5c-2.1-0.1-3.9,1.3-4.5,3.3L159.9,208l-7.2-84.5
	c-0.2-2.1-1.8-3.8-3.9-4.1c-2.1-0.3-4.1,1-4.8,3l-24.4,68H25.7H11.6c-2.5,0-4.5,2-4.5,4.5c0,2.5,2,4.5,4.5,4.5h14.7h96.4
	c1.9,0,3.6-1.2,4.3-3l18.5-51.5l7.6,88.9c0.2,2.2,1.9,3.9,4.1,4.1c0.1,0,0.3,0,0.4,0c2,0,3.8-1.3,4.4-3.3l15.5-55.9l7.9,34.2
	c0.5,2.1,2.3,3.5,4.4,3.5c0,0,0,0,0,0c2.1,0,3.9-1.4,4.4-3.5l11.8-49.6l9.1,64.8c0.3,2.1,2,3.7,4.1,3.9c2.1,0.2,4.1-1.1,4.7-3.2
	l9.3-30.1h98.1h16.3c2.5,0,4.5-2,4.5-4.5C352,191.8,350,189.8,347.5,189.8z"/>
</svg>
