<?xml version="1.0" encoding="utf-8"?>
<!-- Generator: Adobe Illustrator 22.1.0, SVG Export Plug-In . SVG Version: 6.00 Build 0)  -->
<svg version="1.1" xmlns="http://www.w3.org/2000/svg" xmlns:xlink="http://www.w3.org/1999/xlink" x="0px" y="0px"
	 viewBox="0 0 396.8 396.8" style="enable-background:new 0 0 396.8 396.8;" xml:space="preserve">
<style type="text/css">
	.st0{fill:#D43D21;}
	.st1{fill:#F7F1E6;}
	.st2{fill:#2B3237;}
	.st3{fill:#F3DBBD;}
</style>
<g id="Capa_1">
	<g id="Guides_For_Artboard_5_">
	</g>
	<g id="Artwork_5_">
	</g>
	<path class="st0" d="M-45,128.6c-5.5-7.2-13.8-11.3-25.5-12.6c-1.1-0.1-2.1-0.2-3.2-0.2c-8.3,0-16.6,3.1-23,8.3
		c-6.4-5.2-14.7-8.3-23-8.3c-1,0-2,0.1-3.2,0.2c-11.7,1.3-20,5.4-25.5,12.6c-5.4,7.1-7.2,16.5-5.4,27.9
		c2.6,16.1,21.9,34.2,37.4,48.8c0,0,7.7,7.8,10,9.7c1.8,1.5,5.5,4.5,9.6,4.5c4.1,0,7.9-3,9.6-4.5c2.3-2,10.1-9.7,10.1-9.7
		c15.5-14.6,34.7-32.7,37.4-48.8C-37.8,145.1-39.6,135.7-45,128.6z"/>
	<g>
		<path class="st1" d="M246.5,145.6c0,24.3-8.5,47.3-24.2,65.6c-2.2,1.4-4.3,3-6.2,5c-1.9,1.9-3.6,4-5,6.2
			c-18.3,15.7-41.3,24.2-65.6,24.2c-27,0-52.3-10.5-71.4-29.6c-19.1-19.1-29.6-44.4-29.6-71.4c0-27,10.5-52.3,29.6-71.4
			c19.1-19.1,44.4-29.6,71.4-29.6c27,0,52.3,10.5,71.4,29.6C236,93.2,246.5,118.6,246.5,145.6z"/>
		<path class="st2" d="M388.2,346.7L284.6,243.1c1.7,11.1-1.7,22.8-10.2,31.3c-7.1,7.1-16.4,10.7-25.7,10.7c-1.9,0-3.7-0.1-5.5-0.4
			l103.5,103.5c5.7,5.7,13.2,8.6,20.8,8.6s15-2.9,20.8-8.6C399.6,376.7,399.6,358.1,388.2,346.7z"/>
		<path class="st3" d="M211.1,222.3c2-1.7,3.9-3.5,5.8-5.4c1.9-1.9,3.7-3.8,5.4-5.8c-2.2,1.4-4.3,3-6.2,5
			C214.2,218,212.5,220.1,211.1,222.3z"/>
		<path class="st3" d="M274.4,274.4c8.5-8.5,11.9-20.2,10.2-31.3c-1.1-7.4-4.5-14.5-10.2-20.2l-3.4-3.4c-6.2,10.4-13.7,20.2-22.5,29
			c-8.8,8.8-18.5,16.3-29,22.5l3.4,3.4c5.7,5.7,12.8,9.1,20.2,10.2c1.8,0.3,3.7,0.4,5.5,0.4C258,285.1,267.3,281.5,274.4,274.4z"/>
		<path class="st2" d="M248.5,248.5c8.8-8.8,16.3-18.5,22.5-29c13.1-22.2,20.1-47.5,20.1-74c0-38.9-15.1-75.4-42.6-102.9
			C221,15.1,184.4,0,145.6,0C106.7,0,70.1,15.1,42.6,42.6C15.1,70.1,0,106.7,0,145.6c0,38.9,15.1,75.4,42.6,102.9
			c27.5,27.5,64,42.6,102.9,42.6c26.4,0,51.8-7,74-20.1C230,264.8,239.7,257.3,248.5,248.5z M74.2,216.9
			c-19.1-19.1-29.6-44.4-29.6-71.4c0-27,10.5-52.3,29.6-71.4c19.1-19.1,44.4-29.6,71.4-29.6c27,0,52.3,10.5,71.4,29.6
			c19.1,19.1,29.6,44.4,29.6,71.4c0,24.3-8.5,47.3-24.2,65.6c-1.7,2-3.5,3.9-5.4,5.8c-1.9,1.9-3.8,3.7-5.8,5.4
			c-18.3,15.7-41.3,24.2-65.6,24.2C118.6,246.5,93.2,236,74.2,216.9z"/>
		<circle class="st0" cx="145.6" cy="113.8" r="30.8"/>
		<path class="st0" d="M195.9,208.1c1,0,1.8-0.8,1.8-1.8c0,0,0,0,0,0c0-28.8-23.4-52.2-52.2-52.2c-28.8,0-52.2,23.4-52.2,52.2
			c0,0,0,0,0,0c0,1,0.8,1.8,1.8,1.8H195.9z"/>
	</g>
</g>
<g id="Isolation_Mode">
	<g>
		<circle class="st0" cx="-214.4" cy="-152.2" r="30.8"/>
		<path class="st0" d="M-164.1-57.9c1,0,1.8-0.8,1.8-1.8c0,0,0,0,0,0c0-28.8-23.4-52.2-52.2-52.2c-28.8,0-52.2,23.4-52.2,52.2
			c0,0,0,0,0,0c0,1,0.8,1.8,1.8,1.8H-164.1z"/>
	</g>
</g>
</svg>
