<?xml version="1.0" encoding="UTF-8" standalone="no"?>
<svg
   xmlns:fi="http://pattern.flaticon.com/"
   xmlns:dc="http://purl.org/dc/elements/1.1/"
   xmlns:cc="http://creativecommons.org/ns#"
   xmlns:rdf="http://www.w3.org/1999/02/22-rdf-syntax-ns#"
   xmlns:svg="http://www.w3.org/2000/svg"
   xmlns="http://www.w3.org/2000/svg"
   xmlns:xlink="http://www.w3.org/1999/xlink"
   xmlns:sodipodi="http://sodipodi.sourceforge.net/DTD/sodipodi-0.dtd"
   xmlns:inkscape="http://www.inkscape.org/namespaces/inkscape"
   x="0"
   y="0"
   width="700"
   height="350"
   viewBox="0 0 700 350"
   version="1.1"
   id="svg253"
   sodipodi:docname="pattern.svg"
   inkscape:version="0.92.3 (2405546, 2018-03-11)">
  <metadata
     id="metadata257">
    <rdf:RDF>
      <cc:Work
         rdf:about="">
        <dc:format>image/svg+xml</dc:format>
        <dc:type
           rdf:resource="http://purl.org/dc/dcmitype/StillImage" />
      </cc:Work>
    </rdf:RDF>
  </metadata>
  <sodipodi:namedview
     pagecolor="#ffffff"
     bordercolor="#666666"
     borderopacity="1"
     objecttolerance="10"
     gridtolerance="10"
     guidetolerance="10"
     inkscape:pageopacity="0"
     inkscape:pageshadow="2"
     inkscape:window-width="1920"
     inkscape:window-height="1015"
     id="namedview255"
     showgrid="false"
     inkscape:zoom="1.3689133"
     inkscape:cx="367.5"
     inkscape:cy="157.5"
     inkscape:window-x="0"
     inkscape:window-y="36"
     inkscape:window-maximized="1"
     inkscape:current-layer="svg253" />
  <rect
     x="0px"
     y="0px"
     width="100%"
     height="100%"
     opacity="1"
     fill="#ffffff"
     id="rect2" />
  <defs
     id="defs112">
    <g
       transform="matrix(0.08683381229639053 0 0 0.08683381229639053 225.77054405212402 215.77054405212402)"
       id="L1_0">
      <path
         d="M394.905,270.907c-64.565,0-117.094,52.528-117.094,117.094s52.528,117.094,117.094,117.094S512,452.567,512,388.001    S459.472,270.907,394.905,270.907z M402.405,489.819V361.176c0-4.142-3.357-7.5-7.5-7.5s-7.5,3.358-7.5,7.5v128.643    c-52.806-3.853-94.594-48.045-94.594-101.818c0-53.773,41.787-97.965,94.594-101.818v39.826c0,4.142,3.357,7.5,7.5,7.5    s7.5-3.358,7.5-7.5v-39.826C455.212,290.037,497,334.229,497,388.001C497,441.773,455.212,485.966,402.405,489.819z"
         id="path4" />
      <path
         d="M406.838,37.16c-19.511-19.51-45.451-30.255-73.042-30.255c-27.592,0-53.532,10.745-73.042,30.255L145.531,152.383    c-0.002,0.002-0.003,0.003-0.005,0.005s-0.003,0.003-0.005,0.005L30.255,267.658C10.745,287.169,0,313.109,0,340.7    c0,27.592,10.745,53.532,30.255,73.041c20.138,20.138,46.59,30.206,73.042,30.206c26.452,0,52.905-10.069,73.043-30.206    l230.499-230.499c19.509-19.509,30.254-45.449,30.254-73.041S426.348,56.669,406.838,37.16z M396.23,172.636L286.307,282.56    l-82.588-82.588c-2.93-2.929-7.678-2.929-10.607,0c-2.929,2.929-2.929,7.678,0,10.606l82.588,82.588L165.732,403.135    c-34.427,34.428-90.445,34.426-124.87,0C24.185,386.458,15,364.285,15,340.7c0-23.585,9.185-45.758,25.862-62.435L150.83,168.297    l17.407,17.407c1.465,1.464,3.385,2.197,5.304,2.197s3.839-0.732,5.304-2.197c2.929-2.929,2.929-7.678,0-10.606l-17.407-17.407    L271.362,47.766c16.677-16.677,38.85-25.862,62.434-25.862c23.585,0,45.758,9.185,62.434,25.862    c16.678,16.677,25.862,38.85,25.862,62.435S412.907,155.959,396.23,172.636z"
         id="path6" />
    </g>
    <g
       transform="matrix(0.0649248809809399 -0.0649248809809399 0.0649248809809399 0.0649248809809399 73.75846093775877 322)"
       id="L1_1">
      <circle
         cx="289"
         cy="185"
         r="7"
         id="circle9" />
      <circle
         cx="308"
         cy="203"
         r="7"
         id="circle11" />
      <circle
         cx="326"
         cy="222"
         r="7"
         id="circle13" />
      <circle
         cx="263"
         cy="211"
         r="7"
         id="circle15" />
      <circle
         cx="282"
         cy="229"
         r="7"
         id="circle17" />
      <circle
         cx="300"
         cy="248"
         r="7"
         id="circle19" />
      <circle
         cx="237"
         cy="237"
         r="7"
         id="circle21" />
      <circle
         cx="255"
         cy="256"
         r="7"
         id="circle23" />
      <circle
         cx="274"
         cy="274"
         r="7"
         id="circle25" />
      <circle
         cx="211"
         cy="263"
         r="7"
         id="circle27" />
      <circle
         cx="229"
         cy="282"
         r="7"
         id="circle29" />
      <circle
         cx="248"
         cy="300"
         r="7"
         id="circle31" />
      <circle
         cx="185"
         cy="289"
         r="7"
         id="circle33" />
      <circle
         cx="203"
         cy="308"
         r="7"
         id="circle35" />
      <circle
         cx="222"
         cy="326"
         r="7"
         id="circle37" />
      <path
         d="M491.17,67.569l-46.738-46.738C430.999,7.398,413.139,0,394.142,0s-36.857,7.398-50.29,20.831L20.831,343.852    C7.398,357.285,0,375.145,0,394.142s7.398,36.857,20.83,50.289l46.738,46.738C81.002,504.602,98.861,512,117.858,512    c18.998,0,36.858-7.398,50.29-20.831l323.021-323.021C504.602,154.716,512,136.856,512,117.858    C512,98.861,504.602,81.001,491.17,67.569z M480.531,157.51L157.51,480.532c-10.59,10.591-24.673,16.424-39.652,16.424    c-14.978,0-29.06-5.833-39.651-16.424l-46.739-46.738c-10.591-10.591-16.424-24.673-16.424-39.652    c0-14.978,5.832-29.06,16.425-39.652L354.49,31.468c10.591-10.591,24.674-16.424,39.652-16.424    c14.978,0,29.06,5.833,39.651,16.424l46.739,46.738c10.591,10.591,16.424,24.674,16.424,39.652    C496.956,132.837,491.124,146.919,480.531,157.51z"
         id="path39" />
      <path
         d="M370.892,200.781l-59.673-59.673c-4.392-4.391-10.23-6.809-16.44-6.809c-6.211,0-12.049,2.419-16.441,6.81    l-137.231,137.23c-4.391,4.391-6.809,10.23-6.809,16.44c0,6.21,2.418,12.048,6.809,16.44l59.673,59.673    c4.392,4.391,10.23,6.81,16.441,6.81s12.049-2.419,16.441-6.81l137.229-137.23c4.392-4.391,6.811-10.23,6.811-16.441    C377.702,211.011,375.283,205.172,370.892,200.781z M360.254,223.024l-137.23,137.23c-1.549,1.55-3.61,2.404-5.802,2.404    c-2.192,0-4.253-0.854-5.802-2.404l-59.673-59.673c-3.2-3.199-3.2-8.405,0-11.605l137.231-137.23    c1.549-1.55,3.61-2.404,5.802-2.404s4.253,0.854,5.802,2.404l59.673,59.673c1.549,1.55,2.404,3.611,2.404,5.802    C362.658,219.413,361.804,221.474,360.254,223.024z"
         id="path41" />
      <path
         d="M235.543,88.225L168.149,20.83C154.716,7.398,136.856,0,117.859,0s-36.857,7.398-50.29,20.831L20.831,67.569    C7.398,81.002,0,98.862,0,117.858c0,18.996,7.398,36.857,20.83,50.289l68.398,68.398c1.469,1.469,3.394,2.203,5.319,2.203    s3.85-0.735,5.319-2.203c2.937-2.937,2.937-7.7,0-10.638L31.469,157.51c-10.592-10.591-16.425-24.674-16.425-39.652    c0-14.978,5.832-29.06,16.425-39.652l46.738-46.738c10.591-10.591,24.674-16.424,39.652-16.424s29.06,5.833,39.651,16.424    l67.394,67.395c2.937,2.938,7.699,2.938,10.639,0C238.48,95.926,238.48,91.163,235.543,88.225z"
         id="path43" />
      <path
         d="M491.17,343.853l-68.413-68.414c-2.938-2.937-7.7-2.937-10.639,0c-2.937,2.937-2.937,7.7,0,10.638l68.414,68.413    c21.864,21.864,21.864,57.44,0,79.304l-46.738,46.738c-21.864,21.864-57.44,21.864-79.304,0l-69.416-69.416    c-2.937-2.938-7.699-2.938-10.638,0c-2.937,2.937-2.937,7.7,0,10.638l69.416,69.416c13.866,13.865,32.078,20.797,50.29,20.797    c18.212,0,36.425-6.932,50.29-20.797l46.738-46.738C518.898,416.702,518.898,371.583,491.17,343.853z"
         id="path45" />
    </g>
    <g
       transform="matrix(0.08025869808462027 -0.00830262417672777 0.00830262417672777 0.08025869808462027 -20.685952575450806 69.55668837885707)"
       id="L1_4">
      <path
         d="M370.411,141.564c-2.93-2.929-7.681-2.929-10.612,0L177.82,323.544c-2.931,2.931-2.931,7.681,0,10.613    c1.465,1.465,3.385,2.197,5.306,2.197c1.921,0,3.841-0.733,5.306-2.197l181.979-181.98    C373.342,149.246,373.342,144.495,370.411,141.564z"
         id="path48" />
      <path
         d="M440.789,71.186c-2.93-2.929-7.681-2.929-10.612,0l-45.303,45.303c-2.931,2.931-2.931,7.681,0,10.613    c1.465,1.465,3.385,2.197,5.306,2.197c1.921,0,3.841-0.732,5.306-2.197l45.303-45.303C443.72,78.868,443.72,74.118,440.789,71.186    z"
         id="path50" />
      <path
         d="M494.404,46.836l-29.265-29.265c-23.423-23.421-61.535-23.421-84.957,0L119.65,278.105     c-14.485,14.485-21.725,34.492-19.864,54.892c1.455,15.95-4.206,31.592-15.53,42.916l-73.544,73.544     c-14.283,14.283-14.283,37.524,0,51.808c0.432,0.432,0.874,0.853,1.324,1.261c6.747,6.119,15.406,9.468,24.58,9.468     c1.223,0,2.437-0.06,3.639-0.177c8.411-0.824,16.211-4.498,22.265-10.551l73.544-73.544     c11.324-11.325,26.969-16.988,42.917-15.531c20.401,1.863,40.407-5.379,54.892-19.863l13.198-13.198     c2.931-2.931,2.931-7.681,0-10.613c-2.93-2.929-7.681-2.929-10.612,0l-13.198,13.198c-11.325,11.325-26.969,16.991-42.917,15.531     c-20.401-1.86-40.407,5.379-54.892,19.863l-42.054,42.054L52.813,428.58l42.054-42.054     c14.485-14.484,21.725-34.491,19.864-54.893c-1.455-15.949,4.206-31.591,15.53-42.916l55.69-55.69l19.598,19.598     c1.465,1.465,3.385,2.197,5.306,2.197c1.921,0,3.841-0.733,5.306-2.197c2.931-2.931,2.931-7.681,0-10.613l-19.598-19.598     l32.133-32.133l8.655,8.655c1.465,1.465,3.385,2.197,5.306,2.197c1.921,0,3.841-0.733,5.306-2.197     c2.931-2.931,2.931-7.681,0-10.613l-8.655-8.655l32.133-32.133l19.599,19.598c1.465,1.465,3.385,2.197,5.306,2.197     c1.92,0,3.841-0.733,5.306-2.197c2.931-2.931,2.931-7.681,0-10.613l-19.598-19.598l32.133-32.133l8.655,8.655     c1.465,1.466,3.385,2.198,5.306,2.198c1.92,0,3.841-0.733,5.306-2.197c2.931-2.931,2.931-7.681,0-10.612l-8.655-8.655     l32.133-32.133l19.599,19.599c1.465,1.465,3.385,2.197,5.306,2.197c1.92,0,3.841-0.733,5.306-2.197     c2.931-2.931,2.931-7.681,0-10.613l-19.598-19.598l23.251-23.251c17.572-17.571,46.163-17.571,63.734,0l29.265,29.265     c8.512,8.511,13.2,19.829,13.2,31.866c0,12.038-4.688,23.355-13.2,31.867L261.719,343.255c-2.931,2.931-2.931,7.681,0,10.613     c2.93,2.929,7.681,2.929,10.612,0l222.073-222.072c11.346-11.349,17.595-26.434,17.595-42.481     C511.999,73.269,505.75,58.183,494.404,46.836z M72.784,469.775l-20.878,20.878c-4.084,4.084-9.515,6.334-15.291,6.334     c-5.777,0-11.207-2.25-15.292-6.335c-2.108-2.108-3.689-4.546-4.743-7.15c-2.03-5.016-2.085-10.64-0.203-15.701     c1.048-2.82,2.683-5.469,4.946-7.732l20.878-20.878L72.784,469.775z"
         id="path52" />
    </g>
    <g
       transform="matrix(0.13519100844860077 0 0 0.13519100844860077 135.4205819732299 58.390985413677754)"
       id="L1_6">
      <path
         d="M424.772,236.141c-4.143,0-7.5,3.357-7.5,7.5V383.78c0,62.431-50.791,113.222-113.223,113.222H269.31    c-62.432,0-113.223-50.791-113.223-113.221l0.002-34.404c0-4.142-3.357-7.5-7.5-7.5c-4.142,0-7.5,3.357-7.5,7.499l-0.002,34.404    c0,70.702,57.521,128.222,128.223,128.222h34.739c70.702,0,128.223-57.52,128.223-128.223V243.64    C432.272,239.498,428.914,236.141,424.772,236.141z"
         id="path55" />
      <path
         d="M398.923,236.911c-4.143,0-7.5,3.357-7.5,7.5V383.78c0,48.177-39.195,87.371-87.372,87.371h-34.74    c-48.178,0-87.373-39.203-87.373-87.393l-0.038-94.737c31.039-6.199,57.767-26.592,71.919-55.055    c3.192-6.419,2.836-13.903-0.953-20.02c-1.12-1.807-2.485-3.395-4.03-4.746c0.306-1.268,0.596-2.543,0.846-3.834L282.741,75.71    c0.037-0.146,0.069-0.292,0.098-0.44c4.014-20.917-9.054-41.25-29.749-46.289l-10.305-2.509    c-1.372-5.626-5.052-11.114-10.807-15.943c-6.666-5.595-15.136-9.457-22.659-10.331c-16.088-1.871-30.705,9.699-32.577,25.793    c-1.869,16.093,9.701,30.707,25.793,32.576c1.247,0.145,2.533,0.216,3.853,0.216c6.653,0,14.086-1.806,20.572-5.074    c6.384-3.217,11.072-7.448,13.775-12.298l8.805,2.144c12.848,3.128,20.984,15.699,18.606,28.68l-33.053,129.64    c-0.037,0.146-0.07,0.292-0.098,0.44c-0.117,0.608-0.248,1.209-0.378,1.81c-7.585,0.219-14.557,4.598-17.876,11.303    c-10.264,20.728-31.819,34.119-54.914,34.119c-23.27,0-44.24-12.931-54.726-33.746c-3.473-6.896-10.482-11.41-18.061-11.672    c-0.131-0.603-0.262-1.207-0.379-1.815c-0.027-0.148-0.061-0.294-0.098-0.44L55.507,72.237    c-2.379-12.981,5.758-25.552,18.605-28.68l8.782-2.138c6.219,11.242,22.201,17.36,34.453,17.36c1.303,0,2.568-0.069,3.772-0.21    c16.092-1.87,27.662-16.484,25.793-32.577c-1.871-16.092-16.473-27.66-32.578-25.792C106.81,1.075,98.34,4.936,91.673,10.531    c-5.754,4.829-9.434,10.317-10.806,15.943l-10.304,2.508C49.869,34.02,36.8,54.353,40.814,75.271    c0.028,0.148,0.061,0.294,0.098,0.44l33.059,129.657c0.25,1.289,0.539,2.564,0.845,3.831c-1.596,1.393-2.995,3.043-4.133,4.918    c-3.69,6.082-4.007,13.503-0.848,19.848c14.052,28.262,40.499,48.568,71.258,54.923l-0.002,25.739c0,4.142,3.357,7.5,7.499,7.5    c0.001,0,0.001,0,0.001,0c4.142,0,7.5-3.357,7.5-7.499l0.002-29.505c0-5.133-3.675-9.474-8.737-10.321    c-27.639-4.628-51.597-22.389-64.09-47.516c-0.867-1.742-0.778-3.706,0.244-5.389c1.036-1.71,2.836-2.753,4.747-2.79l0.163-0.002    c2.122,0,4.245,1.384,5.284,3.446c13.052,25.905,39.156,41.998,68.123,41.998c28.751,0,55.582-16.668,68.356-42.463    c0.883-1.783,2.902-2.98,5.025-2.98c2.04,0,3.83,0.999,4.908,2.742c1.05,1.696,1.15,3.678,0.272,5.441    c-12.457,25.053-36.317,42.785-63.858,47.473l-0.231,0.023c-5.359,0.548-9.402,5.024-9.402,10.415l0.04,98.563    c0,56.459,45.925,102.391,102.373,102.391h34.74c56.449,0,102.372-45.924,102.372-102.372V244.411    C406.423,240.27,403.066,236.911,398.923,236.911z M228.363,31.992c-0.325,2.805-3.373,5.915-8.152,8.324    c-5.099,2.569-11.356,3.887-15.943,3.354c-7.877-0.915-13.54-8.069-12.625-15.945c0.85-7.316,7.08-12.722,14.274-12.722    c0.552,0,1.11,0.032,1.67,0.097c4.585,0.533,10.374,3.25,14.749,6.922C226.436,25.461,228.689,29.189,228.363,31.992z     M116.065,15.099c7.867-0.906,15.031,4.748,15.945,12.624c0.915,7.878-4.748,15.031-12.625,15.946    c-9.645,1.117-23.382-5.537-24.096-11.678C94.575,25.851,106.419,16.221,116.065,15.099z"
         id="path57" />
      <path
         d="M410.287,96.867c-33.981,0-61.625,27.645-61.625,61.625c0,33.98,27.645,61.625,61.625,61.625    c33.98,0,61.625-27.645,61.625-61.625S444.267,96.867,410.287,96.867z M410.287,205.116c-25.709,0-46.625-20.916-46.625-46.625    s20.916-46.625,46.625-46.625c25.709,0,46.625,20.915,46.625,46.625S435.995,205.116,410.287,205.116z"
         id="path59" />
      <path
         d="M410.287,129.905c-15.762,0-28.587,12.824-28.587,28.586s12.824,28.586,28.587,28.586    c15.763,0,28.586-12.824,28.586-28.586S426.049,129.905,410.287,129.905z M410.287,172.078c-7.492,0-13.586-6.095-13.586-13.586    c0-7.491,6.095-13.585,13.586-13.585c7.491,0,13.586,6.095,13.586,13.585C423.872,165.983,417.778,172.078,410.287,172.078z"
         id="path61" />
    </g>
    <g
       transform="matrix(0.08025869808462027 -0.00830262417672777 0.00830262417672777 0.08025869808462027 87.31404742454919 172.55668837885707)"
       id="g70">
      <path
         d="M370.411,141.564c-2.93-2.929-7.681-2.929-10.612,0L177.82,323.544c-2.931,2.931-2.931,7.681,0,10.613    c1.465,1.465,3.385,2.197,5.306,2.197c1.921,0,3.841-0.733,5.306-2.197l181.979-181.98    C373.342,149.246,373.342,144.495,370.411,141.564z"
         id="path64" />
      <path
         d="M440.789,71.186c-2.93-2.929-7.681-2.929-10.612,0l-45.303,45.303c-2.931,2.931-2.931,7.681,0,10.613    c1.465,1.465,3.385,2.197,5.306,2.197c1.921,0,3.841-0.732,5.306-2.197l45.303-45.303C443.72,78.868,443.72,74.118,440.789,71.186    z"
         id="path66" />
      <path
         d="M494.404,46.836l-29.265-29.265c-23.423-23.421-61.535-23.421-84.957,0L119.65,278.105     c-14.485,14.485-21.725,34.492-19.864,54.892c1.455,15.95-4.206,31.592-15.53,42.916l-73.544,73.544     c-14.283,14.283-14.283,37.524,0,51.808c0.432,0.432,0.874,0.853,1.324,1.261c6.747,6.119,15.406,9.468,24.58,9.468     c1.223,0,2.437-0.06,3.639-0.177c8.411-0.824,16.211-4.498,22.265-10.551l73.544-73.544     c11.324-11.325,26.969-16.988,42.917-15.531c20.401,1.863,40.407-5.379,54.892-19.863l13.198-13.198     c2.931-2.931,2.931-7.681,0-10.613c-2.93-2.929-7.681-2.929-10.612,0l-13.198,13.198c-11.325,11.325-26.969,16.991-42.917,15.531     c-20.401-1.86-40.407,5.379-54.892,19.863l-42.054,42.054L52.813,428.58l42.054-42.054     c14.485-14.484,21.725-34.491,19.864-54.893c-1.455-15.949,4.206-31.591,15.53-42.916l55.69-55.69l19.598,19.598     c1.465,1.465,3.385,2.197,5.306,2.197c1.921,0,3.841-0.733,5.306-2.197c2.931-2.931,2.931-7.681,0-10.613l-19.598-19.598     l32.133-32.133l8.655,8.655c1.465,1.465,3.385,2.197,5.306,2.197c1.921,0,3.841-0.733,5.306-2.197     c2.931-2.931,2.931-7.681,0-10.613l-8.655-8.655l32.133-32.133l19.599,19.598c1.465,1.465,3.385,2.197,5.306,2.197     c1.92,0,3.841-0.733,5.306-2.197c2.931-2.931,2.931-7.681,0-10.613l-19.598-19.598l32.133-32.133l8.655,8.655     c1.465,1.466,3.385,2.198,5.306,2.198c1.92,0,3.841-0.733,5.306-2.197c2.931-2.931,2.931-7.681,0-10.612l-8.655-8.655     l32.133-32.133l19.599,19.599c1.465,1.465,3.385,2.197,5.306,2.197c1.92,0,3.841-0.733,5.306-2.197     c2.931-2.931,2.931-7.681,0-10.613l-19.598-19.598l23.251-23.251c17.572-17.571,46.163-17.571,63.734,0l29.265,29.265     c8.512,8.511,13.2,19.829,13.2,31.866c0,12.038-4.688,23.355-13.2,31.867L261.719,343.255c-2.931,2.931-2.931,7.681,0,10.613     c2.93,2.929,7.681,2.929,10.612,0l222.073-222.072c11.346-11.349,17.595-26.434,17.595-42.481     C511.999,73.269,505.75,58.183,494.404,46.836z M72.784,469.775l-20.878,20.878c-4.084,4.084-9.515,6.334-15.291,6.334     c-5.777,0-11.207-2.25-15.292-6.335c-2.108-2.108-3.689-4.546-4.743-7.15c-2.03-5.016-2.085-10.64-0.203-15.701     c1.048-2.82,2.683-5.469,4.946-7.732l20.878-20.878L72.784,469.775z"
         id="path68" />
    </g>
    <g
       transform="matrix(0.0703396201133728 0 0 0.0703396201133728 236.99305725097656 -15.006942749023438)"
       id="g110">
      <circle
         cx="289"
         cy="185"
         r="7"
         id="circle72" />
      <circle
         cx="308"
         cy="203"
         r="7"
         id="circle74" />
      <circle
         cx="326"
         cy="222"
         r="7"
         id="circle76" />
      <circle
         cx="263"
         cy="211"
         r="7"
         id="circle78" />
      <circle
         cx="282"
         cy="229"
         r="7"
         id="circle80" />
      <circle
         cx="300"
         cy="248"
         r="7"
         id="circle82" />
      <circle
         cx="237"
         cy="237"
         r="7"
         id="circle84" />
      <circle
         cx="255"
         cy="256"
         r="7"
         id="circle86" />
      <circle
         cx="274"
         cy="274"
         r="7"
         id="circle88" />
      <circle
         cx="211"
         cy="263"
         r="7"
         id="circle90" />
      <circle
         cx="229"
         cy="282"
         r="7"
         id="circle92" />
      <circle
         cx="248"
         cy="300"
         r="7"
         id="circle94" />
      <circle
         cx="185"
         cy="289"
         r="7"
         id="circle96" />
      <circle
         cx="203"
         cy="308"
         r="7"
         id="circle98" />
      <circle
         cx="222"
         cy="326"
         r="7"
         id="circle100" />
      <path
         d="M491.17,67.569l-46.738-46.738C430.999,7.398,413.139,0,394.142,0s-36.857,7.398-50.29,20.831L20.831,343.852    C7.398,357.285,0,375.145,0,394.142s7.398,36.857,20.83,50.289l46.738,46.738C81.002,504.602,98.861,512,117.858,512    c18.998,0,36.858-7.398,50.29-20.831l323.021-323.021C504.602,154.716,512,136.856,512,117.858    C512,98.861,504.602,81.001,491.17,67.569z M480.531,157.51L157.51,480.532c-10.59,10.591-24.673,16.424-39.652,16.424    c-14.978,0-29.06-5.833-39.651-16.424l-46.739-46.738c-10.591-10.591-16.424-24.673-16.424-39.652    c0-14.978,5.832-29.06,16.425-39.652L354.49,31.468c10.591-10.591,24.674-16.424,39.652-16.424    c14.978,0,29.06,5.833,39.651,16.424l46.739,46.738c10.591,10.591,16.424,24.674,16.424,39.652    C496.956,132.837,491.124,146.919,480.531,157.51z"
         id="path102" />
      <path
         d="M370.892,200.781l-59.673-59.673c-4.392-4.391-10.23-6.809-16.44-6.809c-6.211,0-12.049,2.419-16.441,6.81    l-137.231,137.23c-4.391,4.391-6.809,10.23-6.809,16.44c0,6.21,2.418,12.048,6.809,16.44l59.673,59.673    c4.392,4.391,10.23,6.81,16.441,6.81s12.049-2.419,16.441-6.81l137.229-137.23c4.392-4.391,6.811-10.23,6.811-16.441    C377.702,211.011,375.283,205.172,370.892,200.781z M360.254,223.024l-137.23,137.23c-1.549,1.55-3.61,2.404-5.802,2.404    c-2.192,0-4.253-0.854-5.802-2.404l-59.673-59.673c-3.2-3.199-3.2-8.405,0-11.605l137.231-137.23    c1.549-1.55,3.61-2.404,5.802-2.404s4.253,0.854,5.802,2.404l59.673,59.673c1.549,1.55,2.404,3.611,2.404,5.802    C362.658,219.413,361.804,221.474,360.254,223.024z"
         id="path104" />
      <path
         d="M235.543,88.225L168.149,20.83C154.716,7.398,136.856,0,117.859,0s-36.857,7.398-50.29,20.831L20.831,67.569    C7.398,81.002,0,98.862,0,117.858c0,18.996,7.398,36.857,20.83,50.289l68.398,68.398c1.469,1.469,3.394,2.203,5.319,2.203    s3.85-0.735,5.319-2.203c2.937-2.937,2.937-7.7,0-10.638L31.469,157.51c-10.592-10.591-16.425-24.674-16.425-39.652    c0-14.978,5.832-29.06,16.425-39.652l46.738-46.738c10.591-10.591,24.674-16.424,39.652-16.424s29.06,5.833,39.651,16.424    l67.394,67.395c2.937,2.938,7.699,2.938,10.639,0C238.48,95.926,238.48,91.163,235.543,88.225z"
         id="path106" />
      <path
         d="M491.17,343.853l-68.413-68.414c-2.938-2.937-7.7-2.937-10.639,0c-2.937,2.937-2.937,7.7,0,10.638l68.414,68.413    c21.864,21.864,21.864,57.44,0,79.304l-46.738,46.738c-21.864,21.864-57.44,21.864-79.304,0l-69.416-69.416    c-2.937-2.938-7.699-2.938-10.638,0c-2.937,2.937-2.937,7.7,0,10.638l69.416,69.416c13.866,13.865,32.078,20.797,50.29,20.797    c18.212,0,36.425-6.932,50.29-20.797l46.738-46.738C518.898,416.702,518.898,371.583,491.17,343.853z"
         id="path108" />
    </g>
    <pattern
       patternUnits="userSpaceOnUse"
       height="350"
       width="350"
       id="pattern247">
      <use
         id="use229"
         y="-350"
         x="-350"
         xlink:href="#UNKNOWN" />
      <use
         id="use231"
         y="-350"
         x="0"
         xlink:href="#UNKNOWN" />
      <use
         id="use233"
         y="-350"
         x="350"
         xlink:href="#UNKNOWN" />
      <use
         id="use235"
         y="0"
         x="-350"
         xlink:href="#UNKNOWN" />
      <use
         id="use237"
         y="0"
         x="0"
         xlink:href="#UNKNOWN" />
      <use
         id="use239"
         y="0"
         x="350"
         xlink:href="#UNKNOWN" />
      <use
         id="use241"
         y="350"
         x="-350"
         xlink:href="#UNKNOWN" />
      <use
         id="use243"
         y="350"
         x="0"
         xlink:href="#UNKNOWN" />
      <use
         id="use245"
         y="350"
         x="350"
         xlink:href="#UNKNOWN" />
    </pattern>
  </defs>
  <g
     fi:class="KUsePattern"
     opacity="0.2"
     id="g135">
    <pattern
       id="pattern_L1_0"
       width="350"
       height="350"
       patternUnits="userSpaceOnUse">
      <use
         xlink:href="#L1_0"
         x="-350"
         y="-350"
         id="use114" />
      <use
         xlink:href="#L1_0"
         x="0"
         y="-350"
         id="use116" />
      <use
         xlink:href="#L1_0"
         x="350"
         y="-350"
         id="use118" />
      <use
         xlink:href="#L1_0"
         x="-350"
         y="0"
         id="use120" />
      <use
         xlink:href="#L1_0"
         x="0"
         y="0"
         id="use122" />
      <use
         xlink:href="#L1_0"
         x="350"
         y="0"
         id="use124" />
      <use
         xlink:href="#L1_0"
         x="-350"
         y="350"
         id="use126" />
      <use
         xlink:href="#L1_0"
         x="0"
         y="350"
         id="use128" />
      <use
         xlink:href="#L1_0"
         x="350"
         y="350"
         id="use130" />
    </pattern>
    <rect
       x="0"
       y="0"
       width="100%"
       height="100%"
       fill="url(#pattern_L1_0)"
       id="rect133" />
  </g>
  <g
     fi:class="KUsePattern"
     opacity="0.2"
     id="g158">
    <pattern
       id="pattern_L1_1"
       width="350"
       height="350"
       patternUnits="userSpaceOnUse">
      <use
         xlink:href="#L1_1"
         x="-350"
         y="-350"
         id="use137" />
      <use
         xlink:href="#L1_1"
         x="0"
         y="-350"
         id="use139" />
      <use
         xlink:href="#L1_1"
         x="350"
         y="-350"
         id="use141" />
      <use
         xlink:href="#L1_1"
         x="-350"
         y="0"
         id="use143" />
      <use
         xlink:href="#L1_1"
         x="0"
         y="0"
         id="use145" />
      <use
         xlink:href="#L1_1"
         x="350"
         y="0"
         id="use147" />
      <use
         xlink:href="#L1_1"
         x="-350"
         y="350"
         id="use149" />
      <use
         xlink:href="#L1_1"
         x="0"
         y="350"
         id="use151" />
      <use
         xlink:href="#L1_1"
         x="350"
         y="350"
         id="use153" />
    </pattern>
    <rect
       x="0"
       y="0"
       width="100%"
       height="100%"
       fill="url(#pattern_L1_1)"
       id="rect156" />
  </g>
  <g
     fi:class="KUsePattern"
     opacity="0.2"
     id="g181">
    <pattern
       id="pattern_L1_6"
       width="350"
       height="350"
       patternUnits="userSpaceOnUse">
      <use
         xlink:href="#L1_6"
         x="-350"
         y="-350"
         id="use160" />
      <use
         xlink:href="#L1_6"
         x="0"
         y="-350"
         id="use162" />
      <use
         xlink:href="#L1_6"
         x="350"
         y="-350"
         id="use164" />
      <use
         xlink:href="#L1_6"
         x="-350"
         y="0"
         id="use166" />
      <use
         xlink:href="#L1_6"
         x="0"
         y="0"
         id="use168" />
      <use
         xlink:href="#L1_6"
         x="350"
         y="0"
         id="use170" />
      <use
         xlink:href="#L1_6"
         x="-350"
         y="350"
         id="use172" />
      <use
         xlink:href="#L1_6"
         x="0"
         y="350"
         id="use174" />
      <use
         xlink:href="#L1_6"
         x="350"
         y="350"
         id="use176" />
    </pattern>
    <rect
       x="0"
       y="0"
       width="100%"
       height="100%"
       fill="url(#pattern_L1_6)"
       id="rect179" />
  </g>
  <g
     fi:class="KUsePattern"
     opacity="0.2"
     id="g204">
    <pattern
       id="pattern_L1_4"
       width="350"
       height="350"
       patternUnits="userSpaceOnUse">
      <use
         xlink:href="#L1_4"
         x="-350"
         y="-350"
         id="use183" />
      <use
         xlink:href="#L1_4"
         x="0"
         y="-350"
         id="use185" />
      <use
         xlink:href="#L1_4"
         x="350"
         y="-350"
         id="use187" />
      <use
         xlink:href="#L1_4"
         x="-350"
         y="0"
         id="use189" />
      <use
         xlink:href="#L1_4"
         x="0"
         y="0"
         id="use191" />
      <use
         xlink:href="#L1_4"
         x="350"
         y="0"
         id="use193" />
      <use
         xlink:href="#L1_4"
         x="-350"
         y="350"
         id="use195" />
      <use
         xlink:href="#L1_4"
         x="0"
         y="350"
         id="use197" />
      <use
         xlink:href="#L1_4"
         x="350"
         y="350"
         id="use199" />
    </pattern>
    <rect
       x="0"
       y="0"
       width="100%"
       height="100%"
       fill="url(#pattern_L1_4)"
       id="rect202" />
  </g>
</svg>
