<?xml version="1.0" encoding="UTF-8" standalone="no"?>
<svg
   xmlns:dc="http://purl.org/dc/elements/1.1/"
   xmlns:cc="http://creativecommons.org/ns#"
   xmlns:rdf="http://www.w3.org/1999/02/22-rdf-syntax-ns#"
   xmlns:svg="http://www.w3.org/2000/svg"
   xmlns="http://www.w3.org/2000/svg"
   id="svg1225"
   version="1.1"
   viewBox="0 0 64.205551 64.205551"
   height="64.205551mm"
   width="64.205551mm">
  <defs
     id="defs1219" />
  <metadata
     id="metadata1222">
    <rdf:RDF>
      <cc:Work
         rdf:about="">
        <dc:format>image/svg+xml</dc:format>
        <dc:type
           rdf:resource="http://purl.org/dc/dcmitype/StillImage" />
        <dc:title></dc:title>
      </cc:Work>
    </rdf:RDF>
  </metadata>
  <g
     transform="translate(-1.1591263,-1.0698488)"
     id="layer1">
    <g
       id="g1187"
       transform="matrix(0.35277777,0,0,-0.35277777,-467.68253,149.58929)">
      <path
         id="path118"
         style="fill:#e74424;fill-opacity:1;fill-rule:nonzero;stroke:none"
         d="m 1511,330 c 0,50.258 -40.742,91 -91,91 -50.258,0 -91,-40.742 -91,-91 0,-50.258 40.742,-91 91,-91 50.258,0 91,40.742 91,91" />
      <path
         id="path222"
         style="fill:#f7f1e6;fill-opacity:1;fill-rule:nonzero;stroke:none"
         d="m 1420.5,284 c -4.143,0 -7.5,3.357 -7.5,7.5 v 30 h -30 c -4.143,0 -7.5,3.357 -7.5,7.5 0,4.143 3.357,7.5 7.5,7.5 h 30 v 30 c 0,4.143 3.357,7.5 7.5,7.5 4.143,0 7.5,-3.357 7.5,-7.5 v -30 h 30 c 4.143,0 7.5,-3.357 7.5,-7.5 0,-4.143 -3.357,-7.5 -7.5,-7.5 h -30 v -30 c 0,-4.143 -3.357,-7.5 -7.5,-7.5" />
    </g>
  </g>
</svg>
