<?xml version="1.0" encoding="UTF-8" standalone="no"?>
<svg
   xmlns:dc="http://purl.org/dc/elements/1.1/"
   xmlns:cc="http://creativecommons.org/ns#"
   xmlns:rdf="http://www.w3.org/1999/02/22-rdf-syntax-ns#"
   xmlns:svg="http://www.w3.org/2000/svg"
   xmlns="http://www.w3.org/2000/svg"
   id="svg1225"
   version="1.1"
   viewBox="0 0 36.336109 36.336109"
   height="36.336109mm"
   width="36.336109mm">
  <defs
     id="defs1219" />
  <metadata
     id="metadata1222">
    <rdf:RDF>
      <cc:Work
         rdf:about="">
        <dc:format>image/svg+xml</dc:format>
        <dc:type
           rdf:resource="http://purl.org/dc/dcmitype/StillImage" />
        <dc:title></dc:title>
      </cc:Work>
    </rdf:RDF>
  </metadata>
  <g
     transform="translate(-1.8898807,-0.23829685)"
     id="layer1">
    <g
       transform="matrix(0.35277777,0,0,-0.35277777,38.225991,18.406352)"
       id="g40">
      <path
         id="path42"
         style="fill:#e74424;fill-opacity:1;fill-rule:nonzero;stroke:none"
         d="m 0,0 c 0,-28.443 -23.058,-51.5 -51.5,-51.5 -28.442,0 -51.5,23.057 -51.5,51.5 0,28.443 23.058,51.5 51.5,51.5 C -23.058,51.5 0,28.443 0,0" />
    </g>
    <g
       transform="matrix(0.35277777,0,0,-0.35277777,24.695728,12.968777)"
       id="g44">
      <path
         id="path46"
         style="fill:#f7f1e6;fill-opacity:1;fill-rule:nonzero;stroke:none"
         d="m 0,0 c 0,-7.228 -5.859,-13.086 -13.087,-13.086 -7.226,0 -13.086,5.858 -13.086,13.086 0,7.228 5.86,13.086 13.086,13.086 C -5.859,13.086 0,7.228 0,0" />
    </g>
    <g
       transform="matrix(0.35277777,0,0,-0.35277777,27.623713,27.797683)"
       id="g48">
      <path
         id="path50"
         style="fill:#f7f1e6;fill-opacity:1;fill-rule:nonzero;stroke:none"
         d="m 0,0 c 0.426,0 0.78,0.341 0.78,0.768 v 0.007 c 0,12.243 -9.924,22.167 -22.167,22.167 -12.242,0 -22.166,-9.924 -22.166,-22.167 V 0.768 C -43.553,0.341 -43.198,0 -42.772,0 Z" />
    </g>
  </g>
</svg>
